<?xml version="1.0" encoding="UTF-8" standalone="no"?>
<svg
   xmlns:dc="http://purl.org/dc/elements/1.1/"
   xmlns:cc="http://creativecommons.org/ns#"
   xmlns:rdf="http://www.w3.org/1999/02/22-rdf-syntax-ns#"
   xmlns:svg="http://www.w3.org/2000/svg"
   xmlns="http://www.w3.org/2000/svg"
   xmlns:sodipodi="http://sodipodi.sourceforge.net/DTD/sodipodi-0.dtd"
   xmlns:inkscape="http://www.inkscape.org/namespaces/inkscape"
   width="128"
   height="128"
   viewBox="0 0 33.866668 33.866668"
   version="1.1"
   id="svg8"
   inkscape:version="1.0.2 (e86c870879, 2021-01-15)"
   sodipodi:docname="logo.svg">
  <defs
     id="defs2">
    <style
       type="text/css"
       id="style31">
   <![CDATA[
    .fil0 {fill:#3DDB85}
   ]]>
  </style>
  </defs>
  <sodipodi:namedview
     id="base"
     pagecolor="#ffffff"
     bordercolor="#666666"
     borderopacity="1.0"
     inkscape:pageopacity="0.0"
     inkscape:pageshadow="2"
     inkscape:zoom="2.8"
     inkscape:cx="61.901972"
     inkscape:cy="45.068129"
     inkscape:document-units="px"
     inkscape:current-layer="layer1"
     inkscape:document-rotation="0"
     showgrid="true"
     units="px"
     inkscape:window-width="1366"
     inkscape:window-height="698"
     inkscape:window-x="0"
     inkscape:window-y="0"
     inkscape:window-maximized="1">
    <inkscape:grid
       type="xygrid"
       id="grid10" />
  </sodipodi:namedview>
  <metadata
     id="metadata5">
    <rdf:RDF>
      <cc:Work
         rdf:about="">
        <dc:format>image/svg+xml</dc:format>
        <dc:type
           rdf:resource="http://purl.org/dc/dcmitype/StillImage" />
        <dc:title></dc:title>
      </cc:Work>
    </rdf:RDF>
  </metadata>
  <g
     inkscape:label="Layer 1"
     inkscape:groupmode="layer"
     id="layer1">
    <g
       style="clip-rule:evenodd;fill-rule:evenodd;image-rendering:optimizeQuality;shape-rendering:geometricPrecision;text-rendering:geometricPrecision;fill:#ffffff"
       id="g70"
       transform="matrix(0.01967114,0,0,0.01967114,0.38643652,0.71398908)">
      <g
         id="Capa_x0020_1"
         style="fill:#ffffff">
  <metadata
   id="CorelCorpID_0Corel-Layer" />

  <path
   id="path20"
   class="fil0"
   d="M 829.93,0 C 657.64,0 497.72,52.33 365.19,141.95 l 0.8,0.43 c 4.96,2.77 10.16,4.79 15.1,7.76 4.43,2.65 8.99,4.84 13.91,7.34 l 33.93,18.22 C 546.31,103.37 684.73,61.62 833.07,61.62 v -0.01 c 415.02,0 745.58,321.77 767.88,723.53 20.78,5.15 40.51,11.95 55.69,17.02 l 2.74,0.93 C 1645.36,358.98 1284.61,-0.01 829.93,-0.01 v 0 z M 188.53,302.82 C 70.7,446.1 0,629.65 0,829.94 c 0,381.76 256.83,702.68 607.37,799.79 -7.82,-24.13 -14.99,-50.01 -21.42,-74.78 -303.75,-102.45 -522,-388.73 -522,-726.5 0,-173.28 57.45,-333 154.4,-461.29 L 200.19,328.5 c -3.81,-8.57 -7.7,-17.13 -11.66,-25.68 z m 531.8,1349.88 c 35.86,4.72 72.44,7.18 109.6,7.18 443.74,0 805.33,-347 828.7,-784.85 L 1596,926.34 c -48.1,377.65 -370.94,668.96 -762.93,668.96 -14.33,0 -28.55,-0.42 -42.69,-1.19 l -1.8,1.37 -31.85,26.46 c -5.29,4.71 -10.84,9.06 -16.37,13.88 l -20.04,16.88 z M 829.93,0 Z M 312.06,264.08 c -7.16,6.58 -14.22,13.28 -21.14,20.13 -2.09,-10.11 -4.01,-20.23 -5.28,-30.34 8.47,2.98 19.67,7.57 26.41,10.21 z M 833.07,61.63 Z"
   inkscape:connector-curvature="0"
   style="fill:#ffffff" />

  <g
   id="dorito_x0020_moto.cdr"
   style="fill:#ffffff">
   <path
   class="fil0"
   d="m 1512.63,801.55 c 7.94,11.85 28.74,24 35.82,34.58 -2.07,7.78 -16.88,16.34 -23.3,21.18 -17.25,13.02 -31.78,28.04 -50.07,40.1 -45.44,29.98 -88.11,63.63 -133.17,94.14 -9.02,6.11 -17.32,11.87 -26.06,18.42 -34.48,25.87 -70.73,49.49 -105.89,74.46 l -53.86,37.56 c -4.67,3.07 -8.68,5.99 -13.03,9.2 -30.39,22.48 -61.83,43.61 -92.96,65.16 -9.28,6.41 -17.79,12.71 -26.68,19.03 -4.38,3.11 -8.38,5.91 -13.08,9.15 -31.36,21.7 -61.84,44.73 -93.64,65.71 -36.3,23.96 -70.75,50.49 -106.75,74.85 l -51.93,38.25 c -8.5,6.31 -18.34,12.53 -27.58,18.11 -10.32,6.23 -18.6,10.72 -31.89,13.82 l -9.41,-16.55 c -8.2,-20.78 -19.31792,-43.6396 -26.28792,-64.2096 -14.80155,-31.4316 -28.47961,-49.0668 -35.81325,-69.6416 -24.98,-41.58 -59.72883,-129.5388 -80.46883,-176.9288 -5.39,-12.3 -11,-24.23 -16.2,-36.93 -2.36,-5.75 -5.26,-11.52 -7.96,-17.99 L 497.6,996.31 C 477.62,953.58 461.05,909.56 439.95,867.43 l -6.67,-13.09 c -3.71,-5.15 0.28,-1.81 -4.04,-3.38 16.46,70.66 38.61,138.35 56.08,208.28 17.78,71.14 33.24,142.42 49.66,214.7 19.14,84.24 76.9,347.76 112.9,415.8 5.26,-1.4 13.34,-8.43 17.69,-11.96 5.79,-4.7 10.86,-8.33 16.52,-13.12 L 730.38,1624 c 5.6,-4.88 10.44,-8.61 16.04,-13.6 l 32.38,-26.91 c 55.76,-42.5 108.57,-89.08 162.24,-134.25 l 16.04,-13.6 c 2.87,-2.43 5.35,-4.49 8.1,-6.72 l 73.35,-60.07 c 11.18,-9.14 21.6,-17.28 32.68,-26.61 l 112.48,-95.06 c 5.46,-4.86 10.59,-8.73 16.05,-13.59 21,-18.69 43.53,-35.46 64.93,-53.66 l 81.47,-66.76 c 14.69,-14.3 114.42,-95.66 129.55,-107.63 32.9,-26.06 64.36,-54.7 97.42,-80.46 l 97.78,-80.11 c 4.07,-4.52 11.87,-11.72 13.4,-17.47 -10.17,-2.36 -22.09,-7.15 -32.58,-10.64 -34.5,-11.51 -106.54,-37.11 -139.12,-15.29 z"
   id="path37"
   sodipodi:nodetypes="ccccccccccccccccccccccccccccccccccccccccccccccccccc"
   style="fill:#ffffff" />

   <path
   class="fil0"
   d="m 332.91,568.07 h 2.47 c 0,-29.57 -45.05,-210.09 -53,-249.66 -3.94,-19.56 -9.74,-43.83 -12.14,-63.22 -3.72,-30.14 4.68,-20.7 51.08,-4.14 l 513.64,190.49 c 8.06,3.08 14.45,5.53 22.49,8.39 37.66,13.44 74.86,28.67 113.03,41.39 7.5,2.5 15.82,5.81 23.32,7.56 -1.44,-5.36 -6.71,-8.18 -11.53,-10.71 l -43.66,-23.06 c -5.31,-2.85 -8.7,-4.98 -14.4,-7.82 -36.38,-18.1 -79.91,-43.71 -116.11,-61.78 -37.77,-18.86 -79,-43.35 -116.13,-61.76 l -72.72,-38.47 c -4.88,-2.96 -9.59,-5.15 -14.59,-7.64 L 387.68,171.09 c -5.62,-2.85 -9.23,-4.52 -14.54,-7.7 -5.12,-3.06 -9.5,-4.63 -14.69,-7.53 l -101.3,-54.35 c -5.29,-2.84 -9.63,-4.52 -14.82,-7.42 -5.28,-2.95 -9.11,-5.17 -14.43,-7.8 C 210.22,77.5 75.5,4.3 66.07,3.52 l 7.06,18.88 c 2.55,6.39 4.99,12.45 7.76,18.17 13.15,27.11 26.61,60.26 40.75,88.96 2.85,5.79 6.1,11.54 8.49,17.45 l 16.64,35.24 c 3.15,6.23 5.51,11.03 8.66,17.28 17.34,34.4 42.86,86.65 58.89,122.69 l 58.04,123.56 c 3.08,6.12 5.36,10.77 8.29,17.65 2.62,6.13 5.57,11.33 8.59,17.35 l 25.53,52.29 c 3.13,6.26 5.5,11.05 8.64,17.31 2.56,5.13 8.25,13.07 9.49,17.7 z"
   id="path39"
   style="fill:#ffffff" />

   <path
   class="fil0"
   d="m 268.46,1304.53 16.48,0.05 c 7.36,-12.09 29.38,-91.34 36.4,-110.86 12.85,-35.74 27.84,-70.39 43.77,-103.26 46.02,-94.99 130.99,-216.61 246.55,-190.94 41.71,9.25 68.37,33 93.46,53.19 21.92,17.64 47.11,51.14 67.57,79.33 11.12,15.33 49.45,77.1 54.9,95.88 7.33,-5.11 9.99,-11.57 15.57,-22.17 l 42.8,-69.73 c 23.18,-29.8 41.76,-59.77 68.17,-81.92 59.45,-49.87 127.93,-87.29 215.71,-28.44 93.23,62.49 157.6,220.45 192.03,333.18 15.47,50.65 6.62,45.68 30.77,46.09 -8.62,-42.11 -26.8,-92.97 -39.23,-134.57 -13.45,-44.99 -26.54,-90.01 -39.91,-135.09 -26.43,-89.1 -52.58,-178.16 -79.52,-267.67 -26.35,-87.6 -52.71,-179.77 -79.28,-267.64 l -69.97,-236.25 c -3.22,-10.79 -5.78,-24.82 -12.54,-32.92 -6.2,31.41 -47.37,163.41 -59.81,206.52 -18.27,63.3 -174.71,607.52 -182.75,619.62 L 587.43,229.44 268.45,1304.53 Z"
   id="path41"
   style="fill:#ffffff" />

  </g>

 </g>
    </g>
  </g>
</svg>
